<svg width="8" height="8" viewBox="0 0 8 8" fill="none" xmlns="http://www.w3.org/2000/svg">
<path d="M0.148194 0.154522C0.243112 0.0596334 0.37183 0.0063278 0.506043 0.0063278C0.640256 0.0063278 0.768975 0.0596334 0.863892 0.154522L3.54295 2.83358L6.22201 0.154522C6.2687 0.10618 6.32455 0.0676197 6.3863 0.0410928C6.44806 0.014566 6.51447 0.000603116 6.58168 1.91108e-05C6.64889 -0.000564895 6.71554 0.0122415 6.77774 0.0376912C6.83994 0.063141 6.89646 0.100724 6.94398 0.148248C6.99151 0.195772 7.02909 0.252285 7.05454 0.314489C7.07999 0.376693 7.0928 0.443343 7.09221 0.51055C7.09163 0.577756 7.07766 0.644173 7.05114 0.705925C7.02461 0.767678 6.98605 0.823529 6.93771 0.87022L3.9008 3.90713C3.80588 4.00202 3.67716 4.05532 3.54295 4.05532C3.40874 4.05532 3.28002 4.00202 3.1851 3.90713L0.148194 0.87022C0.0533056 0.775302 0 0.646584 0 0.512371C0 0.378158 0.0533056 0.24944 0.148194 0.154522ZM0.148194 3.19143C0.243112 3.09654 0.37183 3.04324 0.506043 3.04324C0.640256 3.04324 0.768975 3.09654 0.863892 3.19143L3.54295 5.87049L6.22201 3.19143C6.31747 3.09923 6.44533 3.04821 6.57804 3.04937C6.71075 3.05052 6.8377 3.10375 6.93154 3.1976C7.02539 3.29144 7.07862 3.41839 7.07977 3.5511C7.08093 3.68381 7.02991 3.81167 6.93771 3.90713L3.9008 6.94404C3.80588 7.03892 3.67716 7.09223 3.54295 7.09223C3.40874 7.09223 3.28002 7.03892 3.1851 6.94404L0.148194 3.90713C0.0533056 3.81221 0 3.68349 0 3.54928C0 3.41507 0.0533056 3.28635 0.148194 3.19143Z" fill="#2B3036"/>
</svg>
