<svg width="36" height="36" viewBox="0 0 36 36" fill="none" xmlns="http://www.w3.org/2000/svg">
<path fill-rule="evenodd" clip-rule="evenodd" d="M8.63655 30.5496C4.81794 27.6963 2.34035 23.1359 2.34035 18C2.34035 9.35462 9.35462 2.34035 18 2.34035C25.1379 2.34035 32.9321 6.60598 34.8152 13.1399C32.7086 5.84035 25.9796 0.5 18 0.5C8.33696 0.5 0.5 8.33696 0.5 18C0.5 27.663 8.33696 35.5 18 35.5C27.663 35.5 35.5 27.663 35.5 18V17.0774H34.5394C34.5109 17.0774 34.4681 17.0774 34.411 17.0774C34.2969 17.0774 34.1352 17.0727 33.926 17.0632C33.5122 17.0489 32.9416 17.0204 32.2996 16.9633C30.9871 16.8492 29.4891 16.6257 28.4715 16.2167C26.8308 15.5605 25.9035 14.695 24.8478 13.6773L24.786 13.6202C23.7255 12.6026 22.5367 11.4565 20.4681 10.4864C18.4327 9.53057 16.1834 9.68274 14.5333 10.0251C13.6963 10.1963 12.9735 10.4246 12.4647 10.6101C12.2079 10.7004 12.0034 10.786 11.8607 10.8431C11.0285 11.195 10.2201 11.6087 9.40693 11.9939C9.40693 11.9939 11.0095 12.4314 11.7989 12.6787C11.8274 12.6882 11.8702 12.7024 11.9321 12.7215C12.051 12.7595 12.2221 12.8213 12.4266 12.9069C12.8451 13.0781 13.392 13.3302 13.9341 13.6821C14.7901 14.2289 15.4986 14.9232 15.7887 15.7697C13.9769 16.0075 12.2745 16.8064 11 17.553C10.2296 18.0048 9.58764 18.4613 9.13587 18.7989C8.91236 18.9701 8.73166 19.1128 8.60802 19.2126C8.5034 19.2982 6.86753 20.7391 6.86753 20.7391C6.86753 20.7391 8.97894 20.9626 10.0204 21.1719C10.7147 21.3098 11.6467 21.538 12.6264 21.8757C13.606 22.2181 14.5951 22.6651 15.4178 23.2405C16.2405 23.8159 16.8444 24.4769 17.1393 25.2378C18.0048 27.4538 17.1535 29.608 15.4463 30.8207C13.7582 32.019 11.195 32.3043 8.63179 30.5448L8.63655 30.5496ZM14.6094 33.2887C15.2989 33.0652 15.9409 32.7371 16.5211 32.3281C18.8417 30.678 20.0639 27.6535 18.8607 24.572C18.3852 23.3594 17.4817 22.4368 16.4783 21.733C15.4701 21.0292 14.3145 20.5156 13.2398 20.1399C12.536 19.8927 11.8512 19.7024 11.2568 19.5598C11.4708 19.4219 11.6943 19.2792 11.9368 19.1365C13.3539 18.3043 15.142 17.5387 16.8539 17.5387C19.4361 17.5387 21.3573 18.3329 23.1929 19.1793C23.3594 19.2554 23.5258 19.3363 23.697 19.4124C25.3376 20.1827 27.0591 20.9912 29.0611 20.9912C31.0632 20.9912 32.5136 20.4443 33.555 19.8736C32.6277 27.6345 26.0224 33.6549 18.0095 33.6549C16.8444 33.6549 15.7079 33.5265 14.6189 33.2887H14.6094ZM31.5577 18.7466C30.8682 18.9796 30.0312 19.1508 29.0564 19.1508C27.4871 19.1508 26.1366 18.5231 24.4246 17.7242C24.2724 17.6529 24.1202 17.5815 23.9633 17.5102C22.2466 16.716 20.2636 15.8743 17.6814 15.7221C17.3342 14.0149 16.0408 12.8451 14.928 12.1318C14.8043 12.051 14.6807 11.9749 14.5571 11.9035C14.6664 11.8798 14.7806 11.8512 14.8995 11.8274C16.3927 11.5183 18.1712 11.4423 19.6787 12.1556C21.4667 12.9973 22.4796 13.9674 23.5306 14.9755L23.5686 15.0088C24.6481 16.0455 25.7942 17.1345 27.7867 17.9334C28.8947 18.3757 30.3308 18.6135 31.5577 18.7466Z" fill="url(#paint0_linear_581_428)"/>
<defs>
<linearGradient id="paint0_linear_581_428" x1="0.186141" y1="18.3234" x2="35.8139" y2="17.6719" gradientUnits="userSpaceOnUse">
<stop stop-color="#29CCB9"/>
<stop offset="0.49" stop-color="#0091FF"/>
<stop offset="1" stop-color="#FF66B7"/>
</linearGradient>
</defs>
</svg>
