<svg width="28" height="28" viewBox="0 0 28 28" fill="none" xmlns="http://www.w3.org/2000/svg">
<path fill-rule="evenodd" clip-rule="evenodd" d="M19.9722 12.2747H15.7252V8.0277C15.7252 7.34978 15.1754 6.80005 14.4975 6.80005H13.5021C12.8242 6.80005 12.2745 7.34978 12.2745 8.0277V12.2747H8.02745C7.34954 12.2747 6.7998 12.8244 6.7998 13.5024V14.4977C6.7998 15.1757 7.34954 15.7254 8.02745 15.7254H12.2745V19.9724C12.2745 20.6503 12.8242 21.2 13.5021 21.2H14.4975C15.1754 21.2 15.7252 20.6503 15.7252 19.9724V15.7254H19.9722C20.6501 15.7254 21.1998 15.1757 21.1998 14.4977V13.5024C21.1998 12.8244 20.6501 12.2747 19.9722 12.2747ZM20.0739 15.488C20.0407 15.4913 20.007 15.4931 19.9729 15.4931H15.4936V15.4931H19.9722C20.0065 15.4931 20.0405 15.4914 20.0739 15.488ZM14.5993 20.9626C14.566 20.966 14.5323 20.9677 14.4983 20.9677H13.5029C12.9532 20.9677 12.5075 20.522 12.5075 19.9723V15.4931H8.0282C7.47856 15.4931 7.03281 15.0473 7.03281 14.4977V13.5023C7.03281 12.9882 7.42276 12.565 7.92294 12.5124C7.4224 12.5646 7.03206 12.988 7.03206 13.5024V14.4977C7.03206 15.0474 7.47781 15.4931 8.02745 15.4931H12.5067V19.9724C12.5067 20.522 12.9525 20.9678 13.5021 20.9678H14.4975C14.5319 20.9678 14.5658 20.966 14.5993 20.9626ZM12.5067 12.5069V8.0277C12.5067 7.51335 12.8971 7.08999 13.3976 7.03773C12.8974 7.09033 12.5075 7.51353 12.5075 8.02762V12.5069H12.5067Z" fill="currentColor"/>
<circle cx="14" cy="14" r="12" stroke="currentColor" stroke-width="3"/>
</svg>
