<svg width="24" height="24" viewBox="0 0 24 24" fill="none" xmlns="http://www.w3.org/2000/svg">
<path fill-rule="evenodd" clip-rule="evenodd" d="M23 12C23 18.0751 18.0751 23 12 23C5.92487 23 1 18.0751 1 12C1 5.92487 5.92487 1 12 1C18.0751 1 23 5.92487 23 12ZM24 12C24 18.6274 18.6274 24 12 24C5.37258 24 0 18.6274 0 12C0 5.37258 5.37258 0 12 0C18.6274 0 24 5.37258 24 12ZM12.6667 11.3332H16.6667C16.8436 11.3332 17.0131 11.4034 17.1382 11.5284C17.2632 11.6535 17.3334 11.823 17.3334 11.9998C17.3334 12.1766 17.2632 12.3462 17.1382 12.4712C17.0131 12.5963 16.8436 12.6665 16.6667 12.6665H12.6667V16.6665C12.6667 16.8433 12.5965 17.0129 12.4715 17.1379C12.3465 17.2629 12.1769 17.3332 12.0001 17.3332C11.8233 17.3332 11.6537 17.2629 11.5287 17.1379C11.4037 17.0129 11.3334 16.8433 11.3334 16.6665V12.6665H7.33341C7.1566 12.6665 6.98703 12.5963 6.86201 12.4712C6.73699 12.3462 6.66675 12.1766 6.66675 11.9998C6.66675 11.823 6.73699 11.6535 6.86201 11.5284C6.98703 11.4034 7.1566 11.3332 7.33341 11.3332H11.3334V7.33317C11.3334 7.15636 11.4037 6.98679 11.5287 6.86177C11.6537 6.73674 11.8233 6.6665 12.0001 6.6665C12.1769 6.6665 12.3465 6.73674 12.4715 6.86177C12.5965 6.98679 12.6667 7.15636 12.6667 7.33317V11.3332Z" fill="white" fill-opacity="0.4"/>
</svg>
