<svg width="24" height="24" viewBox="0 0 24 24" fill="none" xmlns="http://www.w3.org/2000/svg">
<path fill-rule="evenodd" clip-rule="evenodd" d="M12 24C18.6274 24 24 18.6274 24 12C24 5.37258 18.6274 0 12 0C5.37258 0 0 5.37258 0 12C0 18.6274 5.37258 24 12 24ZM18.6337 8.01994L14.6536 12L18.6337 15.9801C19.1221 16.4689 19.1221 17.2607 18.6337 17.7491L17.7491 18.6337C17.2607 19.1221 16.4685 19.1221 15.9801 18.6337L12 14.6536L8.01994 18.6337C7.53153 19.1221 6.73926 19.1221 6.25085 18.6337L5.36631 17.7491C4.8779 17.2603 4.8779 16.4685 5.36631 15.9801L9.34636 12L5.36631 8.01994C4.8779 7.53114 4.8779 6.73926 5.36631 6.25085L6.25085 5.36631C6.73966 4.8779 7.53153 4.8779 8.01994 5.36631L12 9.34636L15.9801 5.36631C16.4689 4.8779 17.2607 4.8779 17.7491 5.36631L18.6337 6.25085C19.1221 6.73966 19.1221 7.53153 18.6337 8.01994Z" fill="#FF6240"/>
</svg>
