<svg width="24" height="24" viewBox="0 0 24 24" fill="none" xmlns="http://www.w3.org/2000/svg">
<circle cx="12" cy="12" r="12" fill="#E40000"/>
<path d="M14.6536 12L18.6337 8.01994C19.1221 7.53153 19.1221 6.73966 18.6337 6.25085L17.7491 5.36631C17.2607 4.8779 16.4689 4.8779 15.9801 5.36631L12 9.34636L8.01994 5.36631C7.53153 4.8779 6.73966 4.8779 6.25085 5.36631L5.36631 6.25085C4.8779 6.73926 4.8779 7.53114 5.36631 8.01994L9.34636 12L5.36631 15.9801C4.8779 16.4685 4.8779 17.2603 5.36631 17.7491L6.25085 18.6337C6.73926 19.1221 7.53153 19.1221 8.01994 18.6337L12 14.6536L15.9801 18.6337C16.4685 19.1221 17.2607 19.1221 17.7491 18.6337L18.6337 17.7491C19.1221 17.2607 19.1221 16.4689 18.6337 15.9801L14.6536 12Z" fill="white"/>
</svg>
