<svg width="32" height="32" viewBox="0 0 32 32" fill="none" xmlns="http://www.w3.org/2000/svg">
<path d="M28 7.5986H3V6.58188L25 4.79244V6.58188H28V3.5317C28 1.29491 26.218 -0.274917 24.042 0.0402678L3.96 2.95623C1.782 3.27345 0 5.36181 0 7.5986V27.9331C0 29.0117 0.421427 30.0461 1.17157 30.8088C1.92172 31.5715 2.93913 32 4 32H28C29.0609 32 30.0783 31.5715 30.8284 30.8088C31.5786 30.0461 32 29.0117 32 27.9331V11.6655C32 10.5869 31.5786 9.55246 30.8284 8.78977C30.0783 8.02708 29.0609 7.5986 28 7.5986ZM25 21.845C24.6059 21.8448 24.2157 21.7658 23.8516 21.6123C23.4876 21.4588 23.1568 21.234 22.8783 20.9506C22.5997 20.6671 22.3787 20.3307 22.2281 19.9605C22.0774 19.5902 21.9999 19.1934 22 18.7927C22.0001 18.3921 22.0779 17.9953 22.2288 17.6252C22.3798 17.255 22.6009 16.9188 22.8797 16.6355C23.1584 16.3523 23.4893 16.1276 23.8535 15.9744C24.2176 15.8212 24.6079 15.7424 25.002 15.7426C25.7979 15.7428 26.5611 16.0646 27.1237 16.637C27.6863 17.2094 28.0023 17.9855 28.002 18.7948C28.0017 19.604 27.6853 20.38 27.1223 20.952C26.5593 21.524 25.7959 21.8452 25 21.845Z" fill="#FF6D01"/>
</svg>
